<svg width="48" height="43" viewBox="0 0 48 43" fill="none" xmlns="http://www.w3.org/2000/svg">
<path d="M30.6534 31.4763C22.7623 31.0378 16.4988 24.5007 16.4988 16.5C16.4988 8.21572 23.2145 1.5 31.4988 1.5C39.7831 1.5 46.4988 8.21572 46.4988 16.5C46.4988 19.4517 45.6464 22.2043 44.1741 24.525L45.2341 27.705L45.2358 27.7098C45.6418 28.9278 45.8449 29.5372 45.7003 29.9427C45.5743 30.296 45.2946 30.5747 44.9412 30.7007C44.537 30.8447 43.9319 30.6432 42.7221 30.2397L42.7048 30.2348L39.5237 29.1745C37.203 30.647 34.4506 31.4763 31.4988 31.4763C31.2151 31.4763 30.9332 31.4918 30.6534 31.4763ZM30.6534 31.4763C28.601 37.3148 23.0385 41.5005 16.4985 41.5005C13.5468 41.5005 10.7945 40.647 8.47403 39.1745L5.29378 40.2347L5.28753 40.236C4.06953 40.6418 3.45928 40.8452 3.05378 40.7007C2.70028 40.5747 2.42403 40.296 2.29803 39.9427C2.15328 39.5365 2.35578 38.9265 2.76303 37.7052L3.82303 34.525L3.46803 33.9365C2.21428 31.7448 1.50003 29.2057 1.50003 26.5C1.50003 18.2157 8.21453 11.5 16.4988 11.5L17.0603 11.5103L17.3435 11.5242" fill="white"/>
<path d="M30.6534 31.4763C22.7623 31.0378 16.4988 24.5007 16.4988 16.5C16.4988 8.21572 23.2145 1.5 31.4988 1.5C39.7831 1.5 46.4988 8.21572 46.4988 16.5C46.4988 19.4517 45.6464 22.2042 44.1741 24.525L45.2341 27.705L45.2358 27.7098C45.6418 28.9278 45.8449 29.5372 45.7003 29.9427C45.5743 30.296 45.2946 30.5747 44.9412 30.7007C44.537 30.8447 43.9319 30.6432 42.7221 30.2397L42.7048 30.2348L39.5237 29.1745C37.203 30.647 34.4506 31.4763 31.4988 31.4763C31.2151 31.4763 30.9332 31.4918 30.6534 31.4763ZM30.6534 31.4763C28.601 37.3148 23.0385 41.5005 16.4985 41.5005C13.5468 41.5005 10.7945 40.647 8.47403 39.1745L5.29378 40.2347L5.28753 40.236C4.06953 40.6418 3.45928 40.8452 3.05378 40.7007C2.70028 40.5747 2.42403 40.296 2.29803 39.9427C2.15328 39.5365 2.35578 38.9265 2.76303 37.7052L3.82303 34.525L3.46803 33.9365C2.21428 31.7448 1.50003 29.2057 1.50003 26.5C1.50003 18.2157 8.21453 11.5 16.4988 11.5L17.0603 11.5103L17.3435 11.5242" stroke="#131313" stroke-width="3" stroke-linecap="round" stroke-linejoin="round"/>
</svg>
