<svg width="24" height="25" viewBox="0 0 24 25" fill="none" xmlns="http://www.w3.org/2000/svg">
<path fill-rule="evenodd" clip-rule="evenodd" d="M12.1114 24.1067C12.2471 23.9756 14.976 23.5914 14.976 23.3865C14.976 23.2731 14.9771 23.0877 14.9788 22.8434C14.9791 22.798 14.9794 22.7507 14.9797 22.7013C14.984 22.0667 14.9904 21.11 14.9904 20.0098C14.9904 18.8626 14.6064 18.1138 14.1756 17.7322C16.848 17.4274 19.656 16.3869 19.656 11.6613C19.656 10.3173 19.1904 9.22058 18.42 8.35898C18.5448 8.04819 18.9564 6.79674 18.3024 5.10234C18.3024 5.10234 17.2968 4.77267 15.006 6.36387C14.0472 6.09147 13.02 5.95441 12 5.94961C10.98 5.95441 9.954 6.09147 8.9964 6.36387C6.7032 4.77267 5.6952 5.10234 5.6952 5.10234C5.0436 6.79674 5.4552 8.04819 5.5788 8.35898C4.812 9.22058 4.3428 10.3173 4.3428 11.6613C4.3428 16.3749 7.1448 17.4314 9.81 17.7422C9.4668 18.0494 9.156 18.5913 9.048 19.3869C8.364 19.7013 6.6264 20.2454 5.556 18.365C5.556 18.365 4.9212 17.1829 3.7164 17.0965C3.7164 17.0965 2.5464 17.0809 3.6348 17.8441C3.6348 17.8441 4.4208 18.2221 4.9668 19.6441C4.9668 19.6441 5.6712 21.8401 9.0096 21.0961C9.01267 21.6217 9.01699 22.1318 9.02048 22.5441C9.02382 22.9385 9.0264 23.2434 9.0264 23.3865C9.0264 23.5901 11.955 23.9751 12.1114 24.1067Z" fill="white"/>
<path d="M24 12.3035C24 5.50792 18.6276 0 12 0C5.3736 0 0 5.50792 0 12.3035C0 17.7395 3.438 22.3523 8.2068 23.9783C11.0363 24.1563 12.0304 24.1818 12.1123 24.1252C12.1042 24.1198 12.1042 24.1136 12.1114 24.1067C11.955 23.9751 9.0264 23.5901 9.0264 23.3865C9.0264 23.2434 9.02382 22.9385 9.02048 22.5441C9.01699 22.1318 9.01267 21.6217 9.0096 21.0961C5.6712 21.8401 4.9668 19.6441 4.9668 19.6441C4.4208 18.2221 3.6348 17.8441 3.6348 17.8441C2.5464 17.0809 3.7164 17.0965 3.7164 17.0965C4.9212 17.1829 5.556 18.365 5.556 18.365C6.6264 20.2454 8.364 19.7013 9.048 19.3869C9.156 18.5913 9.4668 18.0494 9.81 17.7422C7.1448 17.4314 4.3428 16.3749 4.3428 11.6613C4.3428 10.3173 4.812 9.22058 5.5788 8.35898C5.4552 8.04819 5.0436 6.79674 5.6952 5.10234C5.6952 5.10234 6.7032 4.77267 8.9964 6.36387C9.954 6.09147 10.98 5.95441 12 5.94961C13.02 5.95441 14.0472 6.09147 15.006 6.36387C17.2968 4.77267 18.3024 5.10234 18.3024 5.10234C18.9564 6.79674 18.5448 8.04819 18.42 8.35898C19.1904 9.22058 19.656 10.3173 19.656 11.6613C19.656 16.3869 16.848 17.4274 14.1756 17.7322C14.6064 18.1138 14.9904 18.8626 14.9904 20.0098C14.9904 21.11 14.984 22.0667 14.9797 22.7013L14.9788 22.8434C14.9771 23.0877 14.976 23.2731 14.976 23.3865C14.976 23.5914 12.2471 23.9756 12.1114 24.1067C12.1196 24.1136 12.1201 24.1198 12.1123 24.1252C12.1954 24.1816 13.1357 24.1558 15.8004 23.9771C20.5656 22.3487 24 17.7383 24 12.3035Z" fill="black"/>
</svg>
