<svg width="24" height="25" viewBox="0 0 24 25" fill="none" xmlns="http://www.w3.org/2000/svg">
<path d="M20.3488 21.5287C22.6642 19.3914 24 16.2523 24 12.5231C24 11.6549 23.9221 10.8199 23.7773 10.0185H12.2449V14.7606H18.8348C18.5454 16.2857 17.6772 17.577 16.3748 18.4452" fill="#3D67C6"/>
<path d="M1.31354 17.744C3.32836 21.7403 7.45825 24.4898 12.2449 24.4898C15.551 24.4898 18.3228 23.3988 20.3488 21.5287L16.3748 18.4452C15.2838 19.1799 13.8924 19.6252 12.2449 19.6252C9.0612 19.6252 6.35621 17.4768 5.38773 14.5825" fill="#32A551"/>
<path d="M1.31356 6.75696C0.47869 8.40444 0 10.2634 0 12.2449C0 14.2263 0.47869 16.0853 1.31356 17.7328L4.48613 15.2616L5.38781 14.5714C5.14291 13.8367 4.9982 13.0575 4.9982 12.2449C4.9982 11.4323 5.14291 10.6531 5.38781 9.91836" fill="#EFB507"/>
<path d="M12.2449 4.87563C14.0482 4.87563 15.6512 5.49898 16.9313 6.70126L20.4378 3.19478C18.3116 1.21333 15.5509 0 12.2448 0C7.45819 0 3.3283 2.74952 1.31348 6.75696L5.38767 9.91837C6.35615 7.02413 9.06119 4.87563 12.2449 4.87563Z" fill="#E53F34"/>
</svg>
