<svg width="38" height="38" viewBox="0 0 38 38" fill="none" xmlns="http://www.w3.org/2000/svg">
<path fill-rule="evenodd" clip-rule="evenodd" d="M2.78249 2.78249C-2.26498e-07 5.56497 0 10.0433 0 19C0 27.9566 -2.26498e-07 32.4351 2.78249 35.2174C5.56497 38 10.0433 38 19 38C27.9566 38 32.4351 38 35.2174 35.2174C38 32.4351 38 27.9566 38 19C38 10.0433 38 5.56497 35.2174 2.78249C32.4351 -2.26498e-07 27.9566 0 19 0C10.0433 0 5.56497 -2.26498e-07 2.78249 2.78249Z" fill="white"/>
<path d="M12.3576 21.2355C11.2479 20.0575 9.39554 19.9958 8.20977 21.0972L6.6698 22.5275C6.09315 23.0631 5.19151 23.0297 4.65592 22.453C4.12033 21.8764 4.15361 20.9748 4.73026 20.4392L6.27021 19.0089C8.60353 16.8418 12.2484 16.9634 14.432 19.2814L19.4623 24.6209C19.9884 25.1793 20.8497 25.2546 21.4647 24.7957C23.7445 23.095 26.919 23.2883 28.9756 25.2531L33.2844 29.3696C33.8535 29.9132 33.874 30.8153 33.3304 31.3844C32.7868 31.9534 31.8847 31.9739 31.3156 31.4303L27.0068 27.3138C25.9559 26.3098 24.3339 26.211 23.1688 27.0801C21.3933 28.4048 18.9067 28.1876 17.3879 26.5751L12.3576 21.2355Z" fill="#131313"/>
<path d="M30.3999 11.3999C30.3999 13.4985 28.6987 15.1999 26.5999 15.1999C24.5012 15.1999 22.7999 13.4985 22.7999 11.3999C22.7999 9.30117 24.5012 7.59985 26.5999 7.59985C28.6987 7.59985 30.3999 9.30117 30.3999 11.3999Z" fill="#131313"/>
</svg>
