<svg width="34" height="40" viewBox="0 0 34 40" fill="none" xmlns="http://www.w3.org/2000/svg">
<path d="M16.128 1.722C16.072 2.114 15.89 2.464 15.582 2.772C15.302 3.08 14.966 3.346 14.574 3.57C14.182 3.766 13.762 3.934 13.314 4.074C12.894 4.186 12.502 4.242 12.138 4.242C11.69 4.242 11.158 4.186 10.542 4.074C9.95397 3.962 9.37997 3.822 8.81997 3.654C8.28797 3.486 7.82597 3.318 7.43397 3.15C7.06997 2.982 6.88797 2.828 6.88797 2.688C6.88797 2.632 6.94397 2.59 7.05597 2.562C7.16797 2.534 7.30797 2.506 7.47597 2.478C7.67197 2.45 7.86797 2.436 8.06397 2.436C8.25997 2.436 8.42797 2.436 8.56797 2.436C9.12797 2.436 9.74397 2.464 10.416 2.52C11.116 2.576 11.746 2.59 12.306 2.562C12.754 2.562 13.132 2.548 13.44 2.52C13.748 2.492 14.028 2.45 14.28 2.394C14.56 2.31 14.826 2.226 15.078 2.142C15.33 2.03 15.624 1.89 15.96 1.722C16.016 1.666 16.072 1.666 16.128 1.722ZM16.548 0.378002C16.548 0.658002 16.408 0.896002 16.128 1.092C15.876 1.288 15.568 1.456 15.204 1.596C14.868 1.708 14.504 1.806 14.112 1.89C13.748 1.946 13.468 1.974 13.272 1.974C12.236 1.974 11.186 1.862 10.122 1.638C9.05797 1.414 8.00797 1.302 6.97197 1.302C5.73997 1.302 4.63397 1.596 3.65397 2.184C2.67397 2.744 1.90397 3.542 1.34397 4.578C1.28797 4.662 1.21797 4.704 1.13397 4.704C1.04997 4.704 1.03597 4.634 1.09197 4.494C1.53997 3.122 2.25397 2.03 3.23397 1.218C4.21397 0.406002 5.48797 1.78814e-06 7.05597 1.78814e-06C8.23197 1.78814e-06 9.39397 0.140002 10.542 0.420001C11.718 0.672001 12.894 0.798002 14.07 0.798002C14.49 0.798002 14.924 0.756001 15.372 0.672001C15.848 0.56 16.142 0.476001 16.254 0.420001C16.282 0.392002 16.338 0.378002 16.422 0.378002C16.506 0.350002 16.548 0.350002 16.548 0.378002ZM4.66197 2.94C4.66197 2.996 4.57797 3.094 4.40997 3.234C4.24197 3.374 4.04597 3.528 3.82197 3.696C3.59797 3.836 3.37397 3.976 3.14997 4.116C2.95397 4.228 2.81397 4.312 2.72997 4.368C2.47797 4.592 2.25397 4.83 2.05797 5.082C1.86197 5.306 1.65197 5.544 1.42797 5.796C1.39997 5.796 1.38597 5.824 1.38597 5.88C1.38597 5.908 1.35797 5.922 1.30197 5.922C1.27397 5.922 1.25997 5.88 1.25997 5.796C1.25997 5.46 1.35797 5.11 1.55397 4.746C1.74997 4.382 1.98797 4.06 2.26797 3.78C2.57597 3.472 2.91197 3.234 3.27597 3.066C3.66797 2.87 4.04597 2.772 4.40997 2.772C4.57797 2.772 4.66197 2.828 4.66197 2.94ZM14.196 10.374C14.224 11.746 14.084 13.188 13.776 14.7C13.468 16.184 13.034 17.696 12.474 19.236C11.914 20.748 11.27 22.246 10.542 23.73C9.84197 25.214 9.09997 26.614 8.31597 27.93C7.53197 29.246 6.74797 30.464 5.96397 31.584C5.17997 32.704 4.46597 33.656 3.82197 34.44C3.79397 34.468 3.75197 34.51 3.69597 34.566C3.63997 34.65 3.58397 34.72 3.52797 34.776C3.47197 34.86 3.41597 34.902 3.35997 34.902C3.30397 34.93 3.27597 34.888 3.27597 34.776C3.24797 34.692 3.40197 34.3 3.73797 33.6C4.10197 32.928 4.53597 32.088 5.03997 31.08C5.57197 30.072 6.14597 28.98 6.76197 27.804C7.40597 26.628 8.00797 25.508 8.56797 24.444C9.12797 23.352 9.61797 22.4 10.038 21.588C10.458 20.748 10.724 20.174 10.836 19.866C11.144 19.026 11.452 18.144 11.76 17.22C12.096 16.268 12.39 15.288 12.642 14.28C12.922 13.272 13.132 12.236 13.272 11.172C13.44 10.108 13.51 9.03 13.482 7.938C13.482 7.714 13.496 7.602 13.524 7.602C13.58 7.602 13.622 7.63 13.65 7.686C13.678 7.714 13.72 7.826 13.776 8.022C13.86 8.302 13.944 8.708 14.028 9.24C14.14 9.744 14.196 10.122 14.196 10.374ZM10.794 6.09C10.57 8.386 10.22 10.458 9.74397 12.306C9.26797 14.126 8.73597 15.778 8.14797 17.262C7.58797 18.746 6.98597 20.09 6.34197 21.294C5.72597 22.498 5.16597 23.604 4.66197 24.612C4.12997 25.676 3.62597 26.74 3.14997 27.804C2.70197 28.868 2.29597 29.946 1.93197 31.038C1.59597 32.158 1.31597 33.306 1.09197 34.482C0.895966 35.658 0.797966 36.904 0.797966 38.22C0.797966 38.528 0.769966 38.654 0.713966 38.598C0.657966 38.598 0.615966 38.514 0.587966 38.346C0.531966 38.206 0.475966 38.024 0.419966 37.8C0.363966 37.604 0.321966 37.408 0.293966 37.212C0.237966 37.016 0.209966 36.848 0.209966 36.708C0.0699658 35.42 0.0839658 34.202 0.251966 33.054C0.391966 31.934 0.615966 30.856 0.923966 29.82C1.25997 28.756 1.65197 27.734 2.09997 26.754C2.54797 25.774 2.98197 24.78 3.40197 23.772C3.84997 22.708 4.39597 21.476 5.03997 20.076C5.71197 18.676 6.36997 17.206 7.01397 15.666C7.65797 14.098 8.24597 12.502 8.77797 10.878C9.30997 9.226 9.67397 7.63 9.86997 6.09C8.80597 6.034 7.69997 5.922 6.55197 5.754C5.43197 5.558 4.38197 5.32 3.40197 5.04C3.34597 5.012 3.28997 4.984 3.23397 4.956C3.17797 4.928 3.14997 4.886 3.14997 4.83C3.12197 4.746 3.17797 4.676 3.31797 4.62C3.48597 4.564 3.58397 4.536 3.61197 4.536C4.50797 4.312 5.34797 4.2 6.13197 4.2C7.19597 4.2 8.24597 4.312 9.28197 4.536C10.318 4.732 11.368 4.83 12.432 4.83C12.768 4.83 13.118 4.802 13.482 4.746C13.874 4.662 14.14 4.592 14.28 4.536C14.392 4.48 14.448 4.494 14.448 4.578C14.448 4.634 14.434 4.69 14.406 4.746C14.154 5.054 13.846 5.306 13.482 5.502C13.146 5.67 12.782 5.81 12.39 5.922C12.474 6.286 12.53 6.622 12.558 6.93C12.586 7.21 12.614 7.462 12.642 7.686C12.81 9.114 12.726 10.626 12.39 12.222C12.082 13.79 11.62 15.372 11.004 16.968C10.388 18.536 9.65997 20.09 8.81997 21.63C7.97997 23.142 7.12597 24.542 6.25797 25.83C6.03397 26.138 5.86597 26.236 5.75397 26.124C5.66997 26.012 5.69797 25.774 5.83797 25.41C6.00597 24.962 6.27197 24.346 6.63597 23.562C6.99997 22.75 7.37797 21.924 7.76997 21.084C8.16197 20.216 8.52597 19.404 8.86197 18.648C9.19797 17.892 9.42197 17.346 9.53397 17.01C10.262 14.742 10.78 12.698 11.088 10.878C11.424 9.03 11.564 7.42 11.508 6.048C11.368 6.076 11.242 6.09 11.13 6.09C11.018 6.09 10.906 6.09 10.794 6.09ZM3.44397 30.618C3.44397 30.786 3.40197 31.08 3.31797 31.5C3.23397 31.948 3.13597 32.424 3.02397 32.928C2.91197 33.432 2.79997 33.908 2.68797 34.356C2.57597 34.832 2.50597 35.182 2.47797 35.406C2.33797 35.994 2.22597 36.582 2.14197 37.17C2.08597 37.758 2.02997 38.374 1.97397 39.018C1.97397 39.074 1.95997 39.158 1.93197 39.27C1.93197 39.382 1.88997 39.438 1.80597 39.438C1.74997 39.41 1.70797 39.326 1.67997 39.186C1.65197 39.046 1.62397 38.948 1.59597 38.892C1.53997 38.64 1.46997 38.304 1.38597 37.884C1.32997 37.492 1.30197 37.184 1.30197 36.96C1.30197 36.26 1.37197 35.518 1.51197 34.734C1.65197 33.978 1.81997 33.278 2.01597 32.634C2.21197 31.99 2.42197 31.458 2.64597 31.038C2.86997 30.618 3.07997 30.422 3.27597 30.45C3.33197 30.478 3.35997 30.506 3.35997 30.534C3.38797 30.562 3.41597 30.59 3.44397 30.618ZM15.6164 21.21C15.5324 21.406 15.4764 21.448 15.4484 21.336C15.4484 21.196 15.4624 21.098 15.4904 21.042C15.6864 19.95 16.0784 19.068 16.6664 18.396C16.7784 17.444 16.9744 16.436 17.2544 15.372C17.5624 14.28 17.8844 13.188 18.2204 12.096C18.5564 11.004 18.8784 9.94 19.1864 8.904C19.5224 7.84 19.8024 6.86 20.0264 5.964C19.3824 5.964 18.7664 5.922 18.1784 5.838C17.9544 5.782 17.8424 5.754 17.8424 5.754C17.8144 5.67 17.9124 5.572 18.1364 5.46C19.2284 4.9 20.4044 4.606 21.6644 4.578C22.9244 4.522 24.1844 4.55 25.4444 4.662C26.2564 4.718 27.0684 4.76 27.8804 4.788C28.6924 4.816 29.5464 4.69 30.4424 4.41C30.5824 4.382 30.6524 4.41 30.6524 4.494C30.6524 4.55 30.6104 4.62 30.5264 4.704C30.2184 5.068 29.8124 5.348 29.3084 5.544C28.8324 5.712 28.3004 5.838 27.7124 5.922C27.1244 6.006 26.5224 6.048 25.9064 6.048C25.3184 6.048 24.7584 6.048 24.2264 6.048C24.3664 6.72 24.4224 7.504 24.3944 8.4C24.3664 9.268 24.2824 10.178 24.1424 11.13C24.0304 12.082 23.8624 13.034 23.6384 13.986C23.4424 14.938 23.2464 15.82 23.0504 16.632C24.1144 16.772 25.1224 16.884 26.0744 16.968C27.0544 17.024 27.9364 16.828 28.7204 16.38C28.8044 16.352 28.8464 16.366 28.8464 16.422C28.8464 16.506 28.8324 16.576 28.8044 16.632C28.3004 17.304 27.7264 17.752 27.0824 17.976C26.4384 18.172 25.7664 18.256 25.0664 18.228C24.3664 18.172 23.6384 18.074 22.8824 17.934C22.1264 17.794 21.3984 17.724 20.6984 17.724C19.8024 17.724 18.8784 17.99 17.9264 18.522C17.0024 19.026 16.2324 19.922 15.6164 21.21ZM19.6904 26.502C19.7184 25.802 19.7604 25.074 19.8164 24.318C19.8724 23.562 19.9704 22.82 20.1104 22.092C19.9984 22.064 19.7324 22.022 19.3124 21.966C18.9204 21.882 18.5284 21.826 18.1364 21.798C17.7724 21.77 17.5344 21.826 17.4224 21.966C17.3384 22.078 17.2824 22.302 17.2544 22.638C17.1144 24.066 17.1704 25.48 17.4224 26.88C17.6744 28.28 18.0944 29.54 18.6824 30.66C18.7384 30.744 18.7524 30.814 18.7244 30.87C18.6964 30.926 18.6404 30.912 18.5564 30.828C17.6324 29.708 17.0024 28.588 16.6664 27.468C16.3304 26.32 16.1344 25.102 16.0784 23.814C16.0504 23.254 16.1624 22.736 16.4144 22.26C16.6944 21.784 17.1144 21.42 17.6744 21.168C18.5984 20.776 19.5224 20.608 20.4464 20.664C21.3704 20.72 22.3364 20.804 23.3444 20.916C23.9324 20.972 24.5484 21.028 25.1924 21.084C25.8644 21.112 26.5224 20.972 27.1664 20.664C27.2504 20.608 27.3064 20.594 27.3344 20.622C27.3624 20.65 27.3624 20.692 27.3344 20.748C27.3064 20.804 27.2784 20.86 27.2504 20.916C26.9984 21.364 26.6204 21.686 26.1164 21.882C25.6404 22.078 25.1224 22.204 24.5624 22.26C24.0024 22.316 23.4424 22.33 22.8824 22.302C22.3504 22.274 21.9024 22.26 21.5384 22.26C21.2864 23.1 21.0204 23.884 20.7404 24.612C20.4604 25.34 20.2224 26.012 20.0264 26.628C19.9144 26.992 19.8304 27.16 19.7744 27.132C19.7184 27.104 19.6904 27.034 19.6904 26.922C19.6904 26.782 19.6904 26.642 19.6904 26.502ZM15.7844 5.922C15.7284 6.118 15.6724 6.174 15.6164 6.09C15.5884 5.978 15.5884 5.88 15.6164 5.796C15.7564 4.788 16.0504 3.934 16.4984 3.234C16.9464 2.534 17.4784 1.974 18.0944 1.554C18.7104 1.106 19.3824 0.784001 20.1104 0.588002C20.8384 0.364001 21.5664 0.238001 22.2944 0.210002C23.2744 0.182002 24.2404 0.224002 25.1924 0.336002C26.1444 0.420001 27.0684 0.504001 27.9644 0.588002C28.8884 0.672002 29.7564 0.714003 30.5684 0.714003C31.4084 0.686001 32.1924 0.546001 32.9204 0.294001C33.0044 0.266001 33.0464 0.280002 33.0464 0.336002L32.9204 0.504C32.1924 1.148 31.3944 1.554 30.5264 1.722C29.6584 1.89 28.7484 1.96 27.7964 1.932C26.8724 1.876 25.9204 1.792 24.9404 1.68C23.9604 1.54 22.9944 1.498 22.0424 1.554C21.4264 1.582 20.7964 1.694 20.1524 1.89C19.5084 2.086 18.9064 2.366 18.3464 2.73C17.7864 3.066 17.2824 3.5 16.8344 4.032C16.3864 4.564 16.0364 5.194 15.7844 5.922ZM28.0064 4.242C27.1104 4.186 26.1444 4.074 25.1084 3.906C24.1004 3.738 23.1484 3.542 22.2524 3.318C22.1964 3.318 22.0844 3.29 21.9164 3.234C21.7764 3.178 21.7064 3.108 21.7064 3.024C21.7064 2.968 21.7624 2.926 21.8744 2.898C22.0144 2.842 22.1124 2.814 22.1684 2.814C22.3644 2.758 22.6024 2.716 22.8824 2.688C23.1904 2.632 23.4984 2.59 23.8064 2.562C24.1424 2.534 24.4644 2.52 24.7724 2.52C25.0804 2.52 25.3464 2.52 25.5704 2.52C25.9904 2.548 26.5224 2.562 27.1664 2.562C27.8384 2.562 28.5104 2.534 29.1824 2.478C29.8544 2.394 30.4704 2.296 31.0304 2.184C31.6184 2.044 32.0664 1.862 32.3744 1.638C32.5144 1.498 32.5844 1.484 32.5844 1.596C32.5844 1.652 32.5564 1.708 32.5004 1.764C32.4724 1.82 32.4444 1.876 32.4164 1.932C32.1924 2.324 31.8984 2.674 31.5344 2.982C31.1704 3.262 30.7784 3.514 30.3584 3.738C29.9384 3.934 29.5184 4.074 29.0984 4.158C28.7064 4.242 28.3424 4.27 28.0064 4.242ZM25.2764 20.538C24.5484 20.482 23.7924 20.356 23.0084 20.16C22.2524 19.964 21.5104 19.74 20.7824 19.488C20.7544 19.488 20.6844 19.46 20.5724 19.404C20.4884 19.348 20.4464 19.278 20.4464 19.194C20.4464 19.138 20.5164 19.082 20.6564 19.026C20.7964 18.97 20.9364 18.928 21.0764 18.9C21.3004 18.844 21.6224 18.802 22.0424 18.774C22.4624 18.718 22.8544 18.718 23.2184 18.774C23.6664 18.83 24.1564 18.872 24.6884 18.9C25.2204 18.9 25.7244 18.872 26.2004 18.816C26.6764 18.732 27.1104 18.606 27.5024 18.438C27.8944 18.27 28.1884 18.06 28.3844 17.808C28.4124 17.724 28.4684 17.682 28.5524 17.682H28.5944C28.6224 17.738 28.6224 17.808 28.5944 17.892C28.5944 17.976 28.5804 18.046 28.5524 18.102C28.2444 18.914 27.7544 19.53 27.0824 19.95C26.4104 20.37 25.8084 20.566 25.2764 20.538ZM20.4044 12.978C20.4324 12.838 20.5164 12.544 20.6564 12.096C20.8244 11.62 21.0064 11.06 21.2024 10.416C21.3984 9.772 21.5804 9.072 21.7484 8.316C21.9444 7.56 22.0844 6.804 22.1684 6.048H21.2024C20.9784 7.812 20.5444 9.618 19.9004 11.466C19.2844 13.286 18.7244 15.134 18.2204 17.01C18.4444 16.898 18.6544 16.8 18.8504 16.716C19.0744 16.632 19.2984 16.562 19.5224 16.506C19.6624 15.89 19.8024 15.274 19.9424 14.658C20.1104 14.014 20.2644 13.454 20.4044 12.978ZM22.6304 9.954C22.3224 11.13 22.0284 12.222 21.7484 13.23C21.4964 14.21 21.1604 15.26 20.7404 16.38H20.8664C20.9504 16.38 21.0344 16.38 21.1184 16.38C21.2304 16.38 21.3564 16.408 21.4964 16.464C21.6084 16.016 21.7344 15.596 21.8744 15.204C22.0144 14.784 22.1544 14.336 22.2944 13.86C22.6304 12.684 22.9384 11.508 23.2184 10.332C23.4984 9.128 23.6944 7.7 23.8064 6.048H22.9664C22.9664 6.692 22.9384 7.392 22.8824 8.148C22.8544 8.876 22.7704 9.478 22.6304 9.954ZM19.1864 27.846C19.2704 28.322 19.3824 28.798 19.5224 29.274C19.6624 29.722 19.8164 30.184 19.9844 30.66C20.0124 30.716 20.0264 30.786 20.0264 30.87C20.0544 30.982 20.0404 31.038 19.9844 31.038C19.9284 31.038 19.8584 31.01 19.7744 30.954C19.6904 30.898 19.6204 30.842 19.5644 30.786C19.2284 30.366 18.9484 29.974 18.7244 29.61C18.5284 29.246 18.3604 28.658 18.2204 27.846C18.1644 27.538 18.1224 27.146 18.0944 26.67C18.0944 26.194 18.1084 25.732 18.1364 25.284C18.1644 24.836 18.2064 24.458 18.2624 24.15C18.3464 23.842 18.4444 23.688 18.5564 23.688C18.5844 23.688 18.6124 23.758 18.6404 23.898C18.6964 24.038 18.7384 24.206 18.7664 24.402C18.7944 24.57 18.8084 24.752 18.8084 24.948C18.8364 25.116 18.8504 25.228 18.8504 25.284C18.9064 25.76 18.9484 26.208 18.9764 26.628C19.0324 27.048 19.1024 27.454 19.1864 27.846ZM17.3384 5.376C17.1144 5.656 16.9044 5.936 16.7084 6.216C16.5404 6.468 16.3864 6.748 16.2464 7.056C16.2184 7.112 16.1764 7.14 16.1204 7.14C16.0644 7.112 16.0504 6.986 16.0784 6.762C16.1344 6.286 16.2044 5.894 16.2884 5.586C16.3724 5.278 16.6104 4.928 17.0024 4.536C17.1424 4.368 17.3384 4.214 17.5904 4.074C17.8424 3.906 18.0804 3.766 18.3044 3.654C18.5284 3.542 18.7244 3.472 18.8924 3.444C19.0884 3.416 19.2004 3.458 19.2284 3.57C19.2564 3.654 19.1584 3.794 18.9344 3.99C18.7384 4.186 18.5844 4.312 18.4724 4.368C18.0244 4.704 17.6464 5.04 17.3384 5.376ZM15.8264 22.47C15.7704 22.582 15.7144 22.61 15.6584 22.554C15.6304 22.526 15.6304 22.386 15.6584 22.134C15.7704 21.742 15.8964 21.392 16.0364 21.084C16.1764 20.748 16.4004 20.426 16.7084 20.118C16.8204 20.006 16.9884 19.894 17.2124 19.782C17.4644 19.67 17.6884 19.586 17.8844 19.53C18.1084 19.446 18.2904 19.404 18.4304 19.404C18.5704 19.376 18.6124 19.404 18.5564 19.488C18.3884 19.712 18.1644 19.95 17.8844 20.202C17.6324 20.454 17.3664 20.72 17.0864 21C16.8344 21.28 16.5824 21.546 16.3304 21.798C16.1064 22.05 15.9384 22.274 15.8264 22.47Z" fill="white"/>
</svg>
