<svg width="38" height="41" viewBox="0 0 38 41" fill="none" xmlns="http://www.w3.org/2000/svg">
<path d="M5.06667 0C3.7229 0 2.43418 0.533808 1.48399 1.48399C0.533808 2.43418 0 3.7229 0 5.06667V35.4667C0 36.8104 0.533808 38.0992 1.48399 39.0493C2.43418 39.9995 3.7229 40.5333 5.06667 40.5333H32.9333C34.2771 40.5333 35.5658 39.9995 36.516 39.0493C37.4662 38.0992 38 36.8104 38 35.4667V5.06667C38 3.7229 37.4662 2.43418 36.516 1.48399C35.5658 0.533808 34.2771 0 32.9333 0L5.06667 0ZM17.7333 5.06667H20.2667C20.9385 5.06667 21.5829 5.33357 22.058 5.80866C22.5331 6.28375 22.8 6.92812 22.8 7.6V15.2C22.8 15.8719 22.5331 16.5162 22.058 16.9913C21.5829 17.4664 20.9385 17.7333 20.2667 17.7333H17.7333C17.0615 17.7333 16.4171 17.4664 15.942 16.9913C15.4669 16.5162 15.2 15.8719 15.2 15.2V7.6C15.2 6.92812 15.4669 6.28375 15.942 5.80866C16.4171 5.33357 17.0615 5.06667 17.7333 5.06667ZM5.06667 7.6C5.06667 6.92812 5.33357 6.28375 5.80866 5.80866C6.28375 5.33357 6.92812 5.06667 7.6 5.06667H10.1333C10.8052 5.06667 11.4496 5.33357 11.9247 5.80866C12.3998 6.28375 12.6667 6.92812 12.6667 7.6V25.3333C12.6667 26.0052 12.3998 26.6496 11.9247 27.1247C11.4496 27.5998 10.8052 27.8667 10.1333 27.8667H7.6C6.92812 27.8667 6.28375 27.5998 5.80866 27.1247C5.33357 26.6496 5.06667 26.0052 5.06667 25.3333V7.6ZM27.8667 5.06667H30.4C31.0719 5.06667 31.7162 5.33357 32.1913 5.80866C32.6664 6.28375 32.9333 6.92812 32.9333 7.6V32.9333C32.9333 33.6052 32.6664 34.2496 32.1913 34.7247C31.7162 35.1998 31.0719 35.4667 30.4 35.4667H27.8667C27.1948 35.4667 26.5504 35.1998 26.0753 34.7247C25.6002 34.2496 25.3333 33.6052 25.3333 32.9333V7.6C25.3333 6.92812 25.6002 6.28375 26.0753 5.80866C26.5504 5.33357 27.1948 5.06667 27.8667 5.06667Z" fill="white"/>
<path d="M5.06667 7.6C5.06667 6.92812 5.33357 6.28375 5.80866 5.80866C6.28375 5.33357 6.92812 5.06667 7.6 5.06667H10.1333C10.8052 5.06667 11.4496 5.33357 11.9247 5.80866C12.3998 6.28375 12.6667 6.92812 12.6667 7.6V25.3333C12.6667 26.0052 12.3998 26.6496 11.9247 27.1247C11.4496 27.5998 10.8052 27.8667 10.1333 27.8667H7.6C6.92812 27.8667 6.28375 27.5998 5.80866 27.1247C5.33357 26.6496 5.06667 26.0052 5.06667 25.3333V7.6Z" fill="#131313"/>
</svg>
